<svg xmlns="http://www.w3.org/2000/svg" width="210" height="297" viewBox="0 0 210 297"><defs><clipPath id="svgPath"><path d="m88.9 234.5c-2.3 0.4-0.4-0.9-2.8-0.6-0.6 0.1-1.3 0-1.9 0-2 0-4 0-6-0.2-1-0.1-2-0.4-3-0.6-1.2-0.2-2.4-0.2-3.6-0.4-4.7-0.8-1.7-0.5-5.3-1.5-1.1-0.3-2.1-0.5-3.2-0.8-1.1-0.3-2.1-0.6-3.2-0.9-1.1-0.3-2.2-0.6-3.2-0.9-2-0.5-3.8-1.4-5.7-2.1-0.7-0.2-1.4-0.4-2.1-0.6-1.1-0.3-2.3-0.6-3.4-0.9-2.6-0.8-3.8-1.2-6.2-2.1-0.9-0.3-4.2-1.6-5.3-2.1-2-1-2-1.4-4-2.6-0.7-0.5-1.6-0.8-2.3-1.3-1.1-0.8-3.5-3.3-4.3-4.3-0.6-0.7-1-1.5-1.5-2.3-0.5-0.9-1.1-1.7-1.5-2.6-1-2.2-2-4.8-2.6-7.2-1.1-4.2-1.1-4.2-1.5-8.1-0.2-2.5-0.6-5.4-0.4-7.9 0.1-1.2 0.8-6.8 1.1-8.3 0.3-1.4 0.8-2.8 1.1-4.2 0.3-1.2 0.6-2.4 0.9-3.6 0.7-2 2.5-6.5 3.4-8.3 1.4-2.9 2.8-5.1 4.3-7.9 1.7-3.2 1.6-3.8 4-7 0.8-1.1 1.9-2.1 2.8-3.2 0.9-1.1 1.7-2.3 2.6-3.4 2-2.4 3.4-3.6 5.7-5.7 0.8-0.8 1.7-1.5 2.5-2.3 0.9-0.9 1.7-1.8 2.6-2.6 1.1-0.9 2.2-1.8 3.4-2.6 1.9-1.3 4.4-2.7 6.4-3.8 1.1-0.6 2.3-1.2 3.4-1.9 0.8-0.5 1.6-1.1 2.5-1.5 1.5-0.8 3-1.4 4.5-2.1 0.9-0.4 1.7-0.8 2.6-1.1 2.5-0.8 5-1.4 7.6-2.1 6.8-1.9 8.8-2.7 16.1-4.7 4.1-1.1 8.2-2.3 12.3-3.2 5.2-1.2 12.9-2.2 18.1-2.5 2.5-0.1 5 0 7.6 0 2.9 0 5.1 0.2 7.9 0.6 1.5 0.2 2.9 0.3 4.3 0.6 1 0.2 2 0.5 3 0.8 1.2 0.3 6.7 1.6 7.7 2.1 2.5 1 4.8 2.4 7.2 3.6 1 0.5 1.9 0.9 2.8 1.5 3.3 2.1 6.2 5.1 9.1 7.7 2.4 2.2 3.9 3.5 6 6 0.8 1 1.6 2 2.3 3 0.4 0.6 3.7 6.4 4 6.8 0.7 1.1 1.4 2.1 2.1 3.2 2.7 4.4 2.5 4.4 4.9 10 0.8 1.8 1.8 4.4 2.5 6.2 0.7 2.1 1.4 4.2 2.1 6.2 0.3 0.8 0.6 1.5 0.8 2.3 0.5 1.9 0.7 4 0.9 5.9 0.1 0.8 0.4 4.9 0.4 5.5 0 0.9 0 1.9 0 2.8 0 0.8 0 1.6 0 2.5 0 0.5-0.3 4.5-0.4 5.1-0.1 0.8-0.1 1.6-0.2 2.5-0.1 0.7-0.3 1.4-0.4 2.1-0.1 0.7-0.2 1.4-0.4 2.1-0.3 1.4-0.7 2.8-1.1 4.2-0.2 0.6-0.4 1.1-0.6 1.7-0.2 0.6-0.5 1.1-0.8 1.7-0.2 0.6-0.3 1.3-0.6 1.9-0.8 2.1-0.6 1.2-1.5 3-0.2 0.4-0.3 0.9-0.6 1.3-1.7 3.2-0.7 1.3-2.1 3.2-0.5 0.7-1 1.5-1.5 2.3-0.3 0.4-0.5 0.8-0.8 1.1-0.2 0.3-0.5 0.5-0.8 0.8-1.9 2.5 0.9-0.6-1.3 1.9-0.5 0.5-1 1-1.5 1.5-0.9 1.1-0.5 0.8-1.5 1.7-0.9 0.8-1.9 1.5-2.8 2.3-1.9 1.7 0.4-0.1-1.7 1.3-0.3 0.2-0.5 0.4-0.8 0.6-0.3 0.2-0.6 0.2-0.9 0.4-0.3 0.2-0.5 0.4-0.8 0.6-0.6 0.4-1.1 0.8-1.7 1.1-0.6 0.3-1.3 0.5-1.9 0.8-0.3 0.1-0.5 0.4-0.8 0.6-0.3 0.2-0.6 0.2-0.9 0.4-0.3 0.1-0.5 0.3-0.8 0.4-1.3 0.5-0.3-0.1-1.3 0.4-0.5 0.2-1 0.5-1.5 0.8-0.3 0.1-0.6 0.3-0.9 0.4-2.1 0.8-0.3 0.1-1.9 0.6-0.4 0.1-0.7 0.3-1.1 0.4 0 0-1.9 0.4-1.9 0.4-0.2 0.1-0.4 0.3-0.6 0.4-0.2 0.1-0.5 0.1-0.8 0.2-0.3 0.1-0.5 0.3-0.8 0.4-0.3 0.1-0.6 0.1-0.9 0.2-0.3 0.1-0.5 0.3-0.8 0.4-0.5 0.2-1.2 0.6-1.7 0.8-0.4 0.1-0.8 0.1-1.1 0.2-0.3 0.1-0.6 0.1-0.9 0.2-0.5 0.1-1 0.2-1.5 0.4-1.1 0.3 0 0.1-1.3 0.4-0.3 0.1-0.6 0.1-0.9 0.2-1.4 0.3-0.1 0.1-1.7 0.4-0.4 0.1-0.8 0.1-1.1 0.2-0.4 0.1-0.7 0.3-1.1 0.4-1 0.3-2.2 0.4-3.2 0.6-0.3 0.1-0.5 0.1-0.8 0.2-1.2 0.2-2.4 0.4-3.6 0.6-1.1 0.2-2.1 0.4-3.2 0.6-0.4 0.1-1.7 0.4-2.1 0.4-0.5 0-1 0-1.5 0-0.4 0-0.9 0.1-1.3 0.2-1 0.1-1.9 0.2-2.8 0.4-0.6 0.1-1.5 0.3-2.1 0.4-0.9 0.1-1.8-0.1-2.6 0-0.5 0-1 0.2-1.5 0.2-0.4 0-0.9 0-1.3 0h-1.9-5.7-9.1-2.8-1.1c-0.1 0-0.3 0-0.4 0-0.2 0-0.4-0.2-0.6-0.2-0.2 0-0.4 0-0.6 0-0.1 0-0.2-0.2-0.4-0.2-0.2 0-0.4 0-0.6 0-0.2 0-0.4-0.2-0.6-0.2-0.2 0 0.7 0 0.7 0h-0.7c1.1 0-0.7-1.1-0.8-1.1-0.2 0-0.4-0.1-0.6-0.2-0.1 0-0.1 0-0.2 0-0.2 0-0.4-0.1-0.6-0.2-0.3-0.1-0.9 0.1-1.1 0-0.1 0-0.2-0.2-0.4-0.2-0.1 0-0.3 0-0.4 0h-1.1-2.8" style="fill:none;stroke-width:.3px;stroke:#000"/></clipPath></defs></svg>